<svg xmlns="http://www.w3.org/2000/svg" viewBox="0 0 32 32" fill="none">
  <!-- Orange rounded square background -->
  <rect width="32" height="32" rx="6" fill="#e8621e"/>
  <!-- Truck silhouette -->
  <rect x="3" y="10" width="18" height="12" rx="2" fill="#fff"/>
  <path d="M21 15h5a3 3 0 0 1 3 3v1a3 3 0 0 1-3 3h-5V15z" fill="#fff" opacity="0.7"/>
  <!-- Junk in bed -->
  <rect x="5" y="12" width="4" height="6" rx="1" fill="#c44f12"/>
  <rect x="10" y="13" width="3" height="5" rx="1" fill="#c44f12"/>
  <rect x="14" y="11" width="3" height="7" rx="1" fill="#c44f12"/>
  <!-- Arrow up -->
  <path d="M8 9l2-4 2 4h-1.2v2H9.2V9H8z" fill="#fff"/>
  <!-- Wheels -->
  <circle cx="9" cy="23" r="2.5" fill="#fff"/>
  <circle cx="9" cy="23" r="1.2" fill="#e8621e"/>
  <circle cx="17" cy="23" r="2.5" fill="#fff"/>
  <circle cx="17" cy="23" r="1.2" fill="#e8621e"/>
  <circle cx="25" cy="23" r="2.5" fill="#fff" opacity="0.7"/>
  <circle cx="25" cy="23" r="1.2" fill="#e8621e" opacity="0.7"/>
</svg>
