<svg xmlns="http://www.w3.org/2000/svg" viewBox="0 0 48 48" fill="none">
  <!-- Truck bed / trailer body -->
  <rect x="2" y="14" width="32" height="20" rx="3" fill="#e8621e"/>
  <!-- Cab -->
  <path d="M34 22h8a4 4 0 0 1 4 4v4a4 4 0 0 1-4 4h-8V22z" fill="#1a1a1a"/>
  <!-- Cab window -->
  <rect x="36" y="24" width="6" height="5" rx="1.5" fill="#e8621e" opacity="0.6"/>
  <!-- Junk silhouettes in bed -->
  <rect x="6" y="17" width="6" height="10" rx="1" fill="#c44f12"/>
  <rect x="14" y="19" width="5" height="8" rx="1" fill="#c44f12"/>
  <rect x="21" y="16" width="4" height="11" rx="1" fill="#c44f12"/>
  <rect x="27" y="20" width="4" height="7" rx="1" fill="#c44f12"/>
  <!-- Arrow going up (hauling away) -->
  <path d="M10 12l3-6 3 6h-2V14H12V12H10z" fill="#1a1a1a"/>
  <!-- Wheels -->
  <circle cx="12" cy="36" r="4" fill="#1a1a1a"/>
  <circle cx="12" cy="36" r="2" fill="#3a3a3a"/>
  <circle cx="28" cy="36" r="4" fill="#1a1a1a"/>
  <circle cx="28" cy="36" r="2" fill="#3a3a3a"/>
  <circle cx="40" cy="36" r="4" fill="#1a1a1a"/>
  <circle cx="40" cy="36" r="2" fill="#3a3a3a"/>
  <!-- Ground line -->
  <rect x="0" y="40" width="48" height="2" rx="1" fill="#1a1a1a" opacity="0.15"/>
</svg>
